C:\GBW_MyPrograms\PredSimResults\gait1018_esmac\gait1018_esmac_v38.mot
version=1
nRows=9
nColumns=29
inDegrees=yes
endheader
                time	         pelvis_tilt	           pelvis_tx	           pelvis_ty	       hip_flexion_l	       hip_flexion_r	        knee_angle_l	        knee_angle_r	       ankle_angle_l	       ankle_angle_r	    lumbar_extension	hamstrings_r/activation	bifemsh_r/activation	glut_max_r/activation	iliopsoas_r/activation	rect_fem_r/activation	  vasti_r/activation	gastroc_r/activation	 soleus_r/activation	tib_ant_r/activation	hamstrings_l/activation	bifemsh_l/activation	glut_max_l/activation	iliopsoas_l/activation	rect_fem_l/activation	  vasti_l/activation	gastroc_l/activation	 soleus_l/activation	tib_ant_l/activation	
          1.03353608	         -8.82231252	          1.29192010	          0.89783276	         -5.86807873	         30.80803516	        -12.61898635	         -5.24840968	          4.92477280	          7.50625852	          2.05594068	          0.08420471	          0.01000001	          0.04743758	          0.01165167	          0.01172255	          0.02063372	          0.01172255	          0.02365004	          0.21083200	          0.01000000	          0.03368418	          0.06257513	          0.01000000	          0.01000001	          0.06636844	          0.19733143	          0.33326481	          0.01215616	
          1.04387144	         -8.76375535	          1.30744137	          0.89734569	         -6.04234727	         29.96649584	        -14.10893009	         -4.95026852	          3.86025810	          7.00735784	          2.29277534	          0.07183133	          0.01000001	          0.05122503	          0.01000000	          0.01000000	          0.04814441	          0.01000000	          0.02224744	          0.24999620	          0.01000000	          0.02873449	          0.10480535	          0.01127970	          0.01000000	          0.06423684	          0.16833476	          0.29341370	          0.01036988	
          1.05420680	         -8.69949432	          1.32323890	          0.89683879	         -6.08437103	         29.06276434	        -15.84429407	         -5.07211464	          2.64038504	          6.28993816	          2.55820419	          0.06127615	          0.01000000	          0.04613240	          0.01000000	          0.01000000	          0.04106988	          0.02042594	          0.02025042	          0.27187987	          0.01000001	          0.02451213	          0.17721924	          0.01000005	          0.01000000	          0.05988641	          0.14359897	          0.25029831	          0.01000000	
          1.06454216	         -8.63296656	          1.33913689	          0.89641542	         -5.97553129	         28.14331203	        -17.80905718	         -5.33422886	          1.18903618	          5.46388184	          2.83408787	          0.05293770	          0.02213661	          0.07966078	          0.01000000	          0.01000000	          0.03503491	          0.01742447	          0.01727475	          0.40055461	          0.01561151	          0.02091022	          0.20484554	          0.01000000	          0.01000000	          0.06850601	          0.12249796	          0.21351847	          0.01000000	
          1.07487752	         -8.56866572	          1.35487843	          0.89627653	         -5.68526532	         27.31614134	        -19.98301408	         -5.70760489	         -0.61288659	          4.45739441	          3.09304932	          0.05891377	          0.01888377	          0.12858117	          0.01000000	          0.01000000	          0.09643291	          0.01486405	          0.01473632	          0.46258431	          0.01374183	          0.01783759	          0.17474471	          0.01000000	          0.01000000	          0.05843946	          0.10449762	          0.18214320	          0.01000000	
          1.08521288	         -8.50950428	          1.37029842	          0.89654895	         -5.15553146	         26.59204379	        -22.41160901	         -6.23757203	         -2.87610958	          3.62726014	          3.31801851	          0.06121885	          0.01610891	          0.15181941	          0.01000000	          0.01000000	          0.15647005	          0.01267987	          0.01572973	          0.51780572	          0.01172255	          0.01521646	          0.14906702	          0.01000000	          0.01234301	          0.04985213	          0.08914232	          0.15537835	          0.01000000	
          1.09554824	         -8.45671712	          1.38532105	          0.89723431	         -4.36613753	         25.91173059	        -25.10030717	         -6.82855272	         -5.55868967	          3.11985517	          3.50153003	          0.07068783	          0.01374181	          0.17901506	          0.01000000	          0.01000000	          0.20413397	          0.01172255	          0.01374183	          0.55608056	          0.01000000	          0.01298049	          0.12716251	          0.01000000	          0.04295728	          0.04252666	          0.07604339	          0.13254643	          0.21026377	
          1.10588361	         -8.41155594	          1.39988968	          0.89818522	         -3.37764114	         25.22308572	        -27.93652496	         -7.37336048	         -7.99322470	          2.90003076	          3.63829891	          0.07108957	          0.01172253	          0.18623521	          0.01000000	          0.01000000	          0.22593086	          0.01000000	          0.01172255	          0.57418732	          0.01000000	          0.01107309	          0.10847674	          0.01000000	          0.07414962	          0.03627762	          0.06486927	          0.11306952	          0.17936676	
          1.11621897	         -8.37457947	          1.41400401	          0.89932951	         -2.26832365	         24.50380116	        -30.71112121	         -7.81887485	         -9.26154972	          2.87430678	          3.72932307	          0.06894790	          0.01000000	          0.17478499	          0.01000000	          0.01000000	          0.23314240	          0.01000000	          0.01000000	          0.56194721	          0.01000001	          0.01000000	          0.09253673	          0.01000000	          0.07866899	          0.03094684	          0.05533711	          0.09645463	          0.19830242	
